<!--?xml version="1.0" encoding="us-ascii" standalone="no"?--><svg xmlns="http://www.w3.org/2000/svg" xmlns:xlink="http://www.w3.org/1999/xlink" contentstyletype="text/css" height="428px" preserveAspectRatio="none" style="width:1298px;height:428px;background:#FFFFFF;" version="1.1" viewBox="0 0 1298 428" width="1298px" zoomAndPan="magnify"><defs></defs><g><!--cluster Platform--><g id="cluster_Platform"><path d="M132,48.53 L310,48.53 A3.75,3.75 0 0 1 312.5,51.03 L319.5,70.8269 L784,70.8269 A2.5,2.5 0 0 1 786.5,73.3269 L786.5,419.4 A2.5,2.5 0 0 1 784,421.9 L132,421.9 A2.5,2.5 0 0 1 129.5,419.4 L129.5,51.03 A2.5,2.5 0 0 1 132,48.53 " fill="none" style="stroke:#000000;stroke-width:1.5;"></path><line style="stroke:#000000;stroke-width:1.5;" x1="129.5" x2="319.5" y1="70.8269" y2="70.8269"></line><text fill="#000000" font-family="sans-serif" font-size="14" font-weight="bold" lengthAdjust="spacing" textLength="177" x="133.5" y="63.5251">eMarketplace Platform</text></g><!--cluster Roles--><g id="cluster_Roles"><path d="M878,314.1 L964,314.1 A3.75,3.75 0 0 1 966.5,316.6 L973.5,336.3969 L1221,336.3969 A2.5,2.5 0 0 1 1223.5,338.8969 L1223.5,414.9 A2.5,2.5 0 0 1 1221,417.4 L878,417.4 A2.5,2.5 0 0 1 875.5,414.9 L875.5,316.6 A2.5,2.5 0 0 1 878,314.1 " fill="none" style="stroke:#000000;stroke-width:1.5;"></path><line style="stroke:#000000;stroke-width:1.5;" x1="875.5" x2="973.5" y1="336.3969" y2="336.3969"></line><text fill="#000000" font-family="sans-serif" font-size="14" font-weight="bold" lengthAdjust="spacing" textLength="85" x="879.5" y="329.0951">User Roles</text></g><!--entity FE--><g id="elem_FE"><rect fill="#F1F1F1" height="36.2969" rx="2.5" ry="2.5" style="stroke:#181818;stroke-width:0.5;" width="83" x="660" y="91.53"></rect><text fill="#000000" font-family="sans-serif" font-size="14" lengthAdjust="spacing" textLength="63" x="670" y="114.5251">Frontend</text></g><!--entity BE--><g id="elem_BE"><rect fill="#F1F1F1" height="36.2969" rx="2.5" ry="2.5" style="stroke:#181818;stroke-width:0.5;" width="81" x="600" y="206.81"></rect><text fill="#000000" font-family="sans-serif" font-size="14" lengthAdjust="spacing" textLength="61" x="610" y="229.8051">Backend</text></g><!--entity DB--><g id="elem_DB"><path d="M473.5,362.6 C473.5,352.6 516.5,352.6 516.5,352.6 C516.5,352.6 559.5,352.6 559.5,362.6 L559.5,387.8969 C559.5,397.8969 516.5,397.8969 516.5,397.8969 C516.5,397.8969 473.5,397.8969 473.5,387.8969 L473.5,362.6 " fill="#F1F1F1" style="stroke:#181818;stroke-width:0.5;"></path><path d="M473.5,362.6 C473.5,372.6 516.5,372.6 516.5,372.6 C516.5,372.6 559.5,372.6 559.5,362.6 " fill="none" style="stroke:#181818;stroke-width:0.5;"></path><text fill="#000000" font-family="sans-serif" font-size="14" lengthAdjust="spacing" textLength="66" x="483.5" y="389.5951">Database</text></g><!--entity EI--><g id="elem_EI"><rect fill="#F1F1F1" height="36.2969" rx="2.5" ry="2.5" style="stroke:#181818;stroke-width:0.5;" width="161" x="594" y="357.1"></rect><text fill="#000000" font-family="sans-serif" font-size="14" lengthAdjust="spacing" textLength="141" x="604" y="380.0951">External Integrations</text></g><!--entity Notif--><g id="elem_Notif"><rect fill="#F1F1F1" height="36.2969" rx="2.5" ry="2.5" style="stroke:#181818;stroke-width:0.5;" width="104" x="153.5" y="357.1"></rect><text fill="#000000" font-family="sans-serif" font-size="14" lengthAdjust="spacing" textLength="84" x="163.5" y="380.0951">Notifications</text></g><!--entity Sec--><g id="elem_Sec"><rect fill="#F1F1F1" height="36.2969" rx="2.5" ry="2.5" style="stroke:#181818;stroke-width:0.5;" width="147" x="292" y="357.1"></rect><text fill="#000000" font-family="sans-serif" font-size="14" lengthAdjust="spacing" textLength="127" x="302" y="380.0951">Security Measures</text></g><!--entity LSP--><g id="elem_LSP"><rect fill="#F1F1F1" height="36.2969" rx="2.5" ry="2.5" style="stroke:#181818;stroke-width:0.5;" width="178" x="1002.5" y="357.1"></rect><text fill="#000000" font-family="sans-serif" font-size="14" lengthAdjust="spacing" textLength="158" x="1012.5" y="380.0951">Legal Service Providers</text></g><!--entity Clients--><g id="elem_Clients"><rect fill="#F1F1F1" height="36.2969" rx="2.5" ry="2.5" style="stroke:#181818;stroke-width:0.5;" width="67" x="900" y="357.1"></rect><text fill="#000000" font-family="sans-serif" font-size="14" lengthAdjust="spacing" textLength="47" x="910" y="380.0951">Clients</text></g><g id="elem_GMN23"><path d="M6,89.54 L6,129.8056 L105,129.8056 L105,99.54 L95,89.54 L6,89.54 " fill="#FEFFDD" style="stroke:#181818;stroke-width:0.5;"></path><path d="M95,89.54 L95,99.54 L105,99.54 L95,89.54 " fill="#FEFFDD" style="stroke:#181818;stroke-width:1.0;"></path><text fill="#000000" font-family="sans-serif" font-size="13" lengthAdjust="spacing" textLength="54" x="12" y="106.6069">Scalable</text><text fill="#000000" font-family="sans-serif" font-size="13" lengthAdjust="spacing" textLength="78" x="12" y="121.7397">Architecture</text></g><g id="elem_GMN26"><path d="M814,89.54 L814,129.8056 L969,129.8056 L969,99.54 L959,89.54 L814,89.54 " fill="#FEFFDD" style="stroke:#181818;stroke-width:0.5;"></path><path d="M959,89.54 L959,99.54 L969,99.54 L959,89.54 " fill="#FEFFDD" style="stroke:#181818;stroke-width:1.0;"></path><text fill="#000000" font-family="sans-serif" font-size="13" lengthAdjust="spacing" textLength="134" x="820" y="106.6069">Legal and Regulatory</text><text fill="#000000" font-family="sans-serif" font-size="13" lengthAdjust="spacing" textLength="89" x="820" y="121.7397">Requirements</text></g><!--link FE to BE--><g id="link_FE_BE"><path d="M692.24,127.88 C680.77,149.17 661.36,185.22 649.85,206.59 " fill="none" id="FE-BE" style="stroke:#181818;stroke-width:1.0;"></path><text fill="#000000" font-family="sans-serif" font-size="13" lengthAdjust="spacing" textLength="102" x="675.5" y="172.8769">User Interaction</text></g><!--link BE to DB--><g id="link_BE_DB"><path d="M599.61,234.54 C577.37,241.32 551.27,253.09 535.5,273.1 C517.7,295.7 514.77,329.88 515.05,352.14 " fill="none" id="BE-DB" style="stroke:#181818;stroke-width:1.0;"></path><text fill="#000000" font-family="sans-serif" font-size="13" lengthAdjust="spacing" textLength="86" x="536.5" y="286.1669">Data Storage</text></g><!--link BE to EI--><g id="link_BE_EI"><path d="M635.44,243.57 C632.47,256.56 629.92,274.6 633.5,290.1 C639.16,314.65 653,340.32 663.03,356.75 " fill="none" id="BE-EI" style="stroke:#181818;stroke-width:1.0;"></path><text fill="#000000" font-family="sans-serif" font-size="13" lengthAdjust="spacing" textLength="69" x="634.5" y="286.1669">Integration</text></g><!--link BE to Notif--><g id="link_BE_Notif"><path d="M599.62,228 C520.02,232.57 347.45,245.41 295.5,273.1 C258.79,292.67 229.82,333.54 215.43,356.89 " fill="none" id="BE-Notif" style="stroke:#181818;stroke-width:1.0;"></path><text fill="#000000" font-family="sans-serif" font-size="13" lengthAdjust="spacing" textLength="79" x="296.5" y="286.1669">Notifications</text></g><!--link BE to Sec--><g id="link_BE_Sec"><path d="M599.65,228.89 C538.41,234.09 426.85,246.94 397.5,273.1 C373.44,294.55 367.32,333.94 365.86,356.72 " fill="none" id="BE-Sec" style="stroke:#181818;stroke-width:1.0;"></path><text fill="#000000" font-family="sans-serif" font-size="13" lengthAdjust="spacing" textLength="118" x="398.5" y="286.1669">Security Measures</text></g><!--link FE to LSP--><g id="link_FE_LSP"><path d="M743.02,128.27 C744.52,128.8 746.02,129.32 747.5,129.81 C881.46,174.13 938.61,127.77 1055.5,206.81 C1085.63,227.18 1092.29,238.5 1103.5,273.1 C1112.66,301.37 1104.63,336.09 1098.03,356.63 " fill="none" id="FE-LSP" style="stroke:#181818;stroke-width:1.0;"></path><text fill="#000000" font-family="sans-serif" font-size="13" lengthAdjust="spacing" textLength="109" x="1092.5" y="229.5169">Manage Services</text></g><!--link FE to Clients--><g id="link_FE_Clients"><path d="M740.89,128.31 C809.7,160.03 946.94,227.61 972.5,273.1 C988.08,300.83 966.09,336.03 949.35,356.75 " fill="none" id="FE-Clients" style="stroke:#181818;stroke-width:1.0;"></path><text fill="#000000" font-family="sans-serif" font-size="13" lengthAdjust="spacing" textLength="103" x="943.5" y="229.5169">Search Services</text></g><!--link BE to LSP--><g id="link_BE_LSP"><path d="M681.32,228.9 C758.16,234.92 921.2,250.02 972.5,273.1 C1016.27,292.79 1056.4,333.61 1077,356.93 " fill="none" id="BE-LSP" style="stroke:#181818;stroke-width:1.0;"></path><text fill="#000000" font-family="sans-serif" font-size="13" lengthAdjust="spacing" textLength="92" x="1002.5" y="286.1669">Case Handling</text></g><!--link BE to Clients--><g id="link_BE_Clients"><path d="M664.73,243.37 C685.2,257.46 715.71,277.05 744.5,290.1 C755.51,295.09 759.22,293.76 770.5,298.1 C816.26,315.73 867.2,340.38 899.75,356.81 " fill="none" id="BE-Clients" style="stroke:#181818;stroke-width:1.0;"></path><text fill="#000000" font-family="sans-serif" font-size="13" lengthAdjust="spacing" textLength="90" x="745.5" y="286.1669">Case Initiation</text></g><!--link BE to Clients--><g id="link_BE_Clients"><path d="M681.42,228.55 C723.78,232.79 790.62,243.92 840.5,273.1 C876.53,294.19 906.76,333.71 922.28,356.61 " fill="none" id="BE-Clients-1" style="stroke:#181818;stroke-width:1.0;"></path><text fill="#000000" font-family="sans-serif" font-size="13" lengthAdjust="spacing" textLength="101" x="862.5" y="286.1669">Communication</text></g><!--link Roles to Platform--><g id="link_Roles_Platform"><path d="M1223.5459,348.3097 C1223.5981,348.1102 1223.6503,347.9099 1223.7026,347.7086 C1223.9115,346.9036 1224.1209,346.0844 1224.3302,345.2516 C1225.1675,341.9204 1226.0035,338.3716 1226.8074,334.6433 C1228.4153,327.1866 1229.895,319.0116 1231,310.4213 C1235.42,276.06 1233.845,235.055 1210.5,206.81 C1091.26,62.55 962.39,216.45 796.5,129.81 C794.075,128.5425 791.7981,126.8181 789.7331,124.9206 C788.7006,123.9719 787.7211,122.9798 786.8025,121.98 C786.7451,121.9175 786.6879,121.855 786.631,121.7924 C786.6025,121.7612 786.5741,121.7299 786.5458,121.6986 " fill="none" id="Roles-Platform" style="stroke:#181818;stroke-width:1.0;stroke-dasharray:7.0,7.0;"></path><text fill="#000000" font-family="sans-serif" font-size="13" lengthAdjust="spacing" textLength="62" x="1228.5" y="229.5169">Data Flow</text></g><!--link GMN23 to Platform--><g id="link_GMN23_Platform"><path d="M69.54,89.36 C86.64,66.64 117.9,31.25 155,17.53 C186.16,6 721.84,6 753,17.53 C762.4975,21.0425 768.9169,28.1125 773.1858,36.8453 C774.253,39.0285 775.1858,41.3156 775.9987,43.6771 C776.4052,44.8578 776.7817,46.0571 777.13,47.2713 C777.2171,47.5749 777.3024,47.8793 777.386,48.1847 " fill="none" id="GMN23-Platform" style="stroke:#181818;stroke-width:1.0;stroke-dasharray:7.0,7.0;"></path></g><!--link Platform to GMN26--><g id="link_Platform_GMN26"><path d="M786.5394,109.67 C786.9013,109.67 787.2631,109.67 787.625,109.67 C790.52,109.67 793.415,109.67 796.31,109.67 C802.1,109.67 807.89,109.67 813.68,109.67 " fill="none" id="Platform-GMN26" style="stroke:#181818;stroke-width:1.0;stroke-dasharray:7.0,7.0;"></path></g><!--SRC=[PPB1Ri8m38RlVOg8Epp0RYkqMYMO4DLkN4pgbeWqOMxAXgQz-zoqZ11wIltzTdxzpXda2HeKCzm0dT2TDKWKMmskjjJE17J_F-8d4VmHIWUcqToJapKEJULbUHRZb6VVQ3hI2XmSe6EucawUhjAuD_jsI0QqAFY6Xi0fQpglpOfO-swTgfKCDBuIoqgKFIbt5Hk4hYSSfLnDl3BFn7pEFiMB-EYG_CK4SXZgUUhvAcK-U1UbiyJ91Imhc0L-0-GDCNsm6d1smVJ9OVAR9EVRXhohdTMJSNzwtiaQ6qwjHBgeOP5aBwf26blMvJQMBxL2uqOydSCuk8DzRS0C3gQXNS2d5kyTI1uVDMamOpbi_GrCfPLf0dgVu1M5KKx5wGKQsxQzcG8SqXbJM2pkhtHQJwxjLv8Owr1eh9smTIWf9MWuQDoRLtQj70V2UOzoKiqnre-fidknmwRdkgNhtkpmirU4xM3k3m00]--></g></svg>